<?xml version="1.0" encoding="UTF-8"?>
<!DOCTYPE svg PUBLIC "-//W3C//DTD SVG 1.1//EN" "http://www.w3.org/Graphics/SVG/1.1/DTD/svg11.dtd">
<svg xmlns="http://www.w3.org/2000/svg" version="1.1" width="747px" height="747px" style="shape-rendering:geometricPrecision; text-rendering:geometricPrecision; image-rendering:optimizeQuality; fill-rule:evenodd; clip-rule:evenodd" xmlns:xlink="http://www.w3.org/1999/xlink">
<g><path style="opacity:1" fill="#66b8ac" d="M 739.5,616.5 C 640.001,617.499 540.335,617.833 440.5,617.5C 422.773,576.498 404.94,535.498 387,494.5C 381.376,484.592 376.876,474.258 373.5,463.5C 372.084,458.433 370.751,453.267 369.5,448C 369.625,445.449 369.958,442.949 370.5,440.5C 370.5,439.833 370.5,439.167 370.5,438.5C 417.997,329.168 466.331,220.168 515.5,111.5C 591.003,279.502 665.669,447.835 739.5,616.5 Z"/></g>
<g><path style="opacity:1" fill="#66b8ac" d="M 363.5,443.5 C 363.625,448.333 362.792,453 361,457.5C 337.408,511.011 313.575,564.344 289.5,617.5C 195.166,617.667 100.833,617.5 6.5,617C 7.38017,615.644 7.71351,614.144 7.5,612.5C 78.5884,450.983 150.255,289.65 222.5,128.5C 224.604,131.28 226.438,134.28 228,137.5C 272.942,239.708 318.109,341.708 363.5,443.5 Z"/></g>
<g><path style="opacity:0.139" fill="#f7faf9" d="M 740.5,620.5 C 740.5,619.833 740.5,619.167 740.5,618.5C 740.672,617.508 740.338,616.842 739.5,616.5C 665.669,447.835 591.003,279.502 515.5,111.5C 466.331,220.168 417.997,329.168 370.5,438.5C 369.833,438.833 369.167,439.167 368.5,439.5C 370.842,432.481 373.342,425.481 376,418.5C 421.813,315.344 467.646,212.178 513.5,109C 515.259,108.202 516.926,108.369 518.5,109.5C 593.477,278.736 668.477,448.069 743.5,617.5C 743.484,619.516 742.484,620.516 740.5,620.5 Z"/></g>
<g><path style="opacity:0.135" fill="#f7fafa" d="M 364.5,441.5 C 363.662,441.842 363.328,442.508 363.5,443.5C 318.109,341.708 272.942,239.708 228,137.5C 226.438,134.28 224.604,131.28 222.5,128.5C 150.255,289.65 78.5884,450.983 7.5,612.5C 6.26162,614.214 5.59495,616.214 5.5,618.5C 7.83333,619.167 10.1667,619.833 12.5,620.5C 9.63456,621.783 6.63456,621.783 3.5,620.5C 3.16667,619.667 2.83333,618.833 2.5,618C 57.3162,492.975 112.816,368.142 169,243.5C 185.714,205.055 202.214,166.389 218.5,127.5C 222.421,124.529 225.588,125.195 228,129.5C 232.844,141.851 237.844,154.184 243,166.5C 283.562,257.974 324.062,349.64 364.5,441.5 Z"/></g>
<g><path style="opacity:0.914" fill="#8bc8bf" d="M 370.5,440.5 C 369.958,442.949 369.625,445.449 369.5,448C 370.751,453.267 372.084,458.433 373.5,463.5C 368.37,457.02 366.87,449.687 369,441.5C 369.383,440.944 369.883,440.611 370.5,440.5 Z"/></g>
<g><path style="opacity:0.059" fill="#f2f7f7" d="M 370.5,438.5 C 370.5,439.167 370.5,439.833 370.5,440.5C 369.883,440.611 369.383,440.944 369,441.5C 366.87,449.687 368.37,457.02 373.5,463.5C 376.876,474.258 381.376,484.592 387,494.5C 404.94,535.498 422.773,576.498 440.5,617.5C 441.568,618.434 442.901,618.768 444.5,618.5C 444.167,619.167 443.833,619.833 443.5,620.5C 440.478,620.572 438.312,619.238 437,616.5C 417.923,571.441 398.256,526.774 378,482.5C 374.14,472.016 370.14,461.682 366,451.5C 341.844,506.505 317.844,561.505 294,616.5C 289.952,620.676 285.118,622.01 279.5,620.5C 281.833,619.833 284.167,619.167 286.5,618.5C 287.791,618.737 288.791,618.404 289.5,617.5C 313.575,564.344 337.408,511.011 361,457.5C 362.792,453 363.625,448.333 363.5,443.5C 363.328,442.508 363.662,441.842 364.5,441.5C 364.281,442.675 364.614,443.675 365.5,444.5C 366.935,443.053 367.935,441.386 368.5,439.5C 369.167,439.167 369.833,438.833 370.5,438.5 Z"/></g>
<g><path style="opacity:0.983" fill="#8bc1ba" d="M 7.5,612.5 C 7.71351,614.144 7.38017,615.644 6.5,617C 100.833,617.5 195.166,617.667 289.5,617.5C 288.791,618.404 287.791,618.737 286.5,618.5C 192.833,618.5 99.1667,618.5 5.5,618.5C 5.59495,616.214 6.26162,614.214 7.5,612.5 Z"/></g>
<g><path style="opacity:0.812" fill="#8fc3bc" d="M 739.5,616.5 C 740.338,616.842 740.672,617.508 740.5,618.5C 641.833,618.5 543.167,618.5 444.5,618.5C 442.901,618.768 441.568,618.434 440.5,617.5C 540.335,617.833 640.001,617.499 739.5,616.5 Z"/></g>
<g><path style="opacity:0.332" fill="#ebf0ef" d="M 5.5,618.5 C 99.1667,618.5 192.833,618.5 286.5,618.5C 284.167,619.167 281.833,619.833 279.5,620.5C 190.5,620.5 101.5,620.5 12.5,620.5C 10.1667,619.833 7.83333,619.167 5.5,618.5 Z"/></g>
<g><path style="opacity:0.492" fill="#e9efee" d="M 444.5,618.5 C 543.167,618.5 641.833,618.5 740.5,618.5C 740.5,619.167 740.5,619.833 740.5,620.5C 641.5,620.5 542.5,620.5 443.5,620.5C 443.833,619.833 444.167,619.167 444.5,618.5 Z"/></g>
</svg>
