<?xml version="1.0" encoding="UTF-8"?>
<!DOCTYPE svg PUBLIC "-//W3C//DTD SVG 1.1//EN" "http://www.w3.org/Graphics/SVG/1.1/DTD/svg11.dtd">
<svg xmlns="http://www.w3.org/2000/svg" version="1.1" width="743px" height="146px" style="shape-rendering:geometricPrecision; text-rendering:geometricPrecision; image-rendering:optimizeQuality; fill-rule:evenodd; clip-rule:evenodd" xmlns:xlink="http://www.w3.org/1999/xlink">
<g><path style="opacity:1" fill="#e00011" d="M 87.5,1.5 C 87.427,3.02694 88.0937,4.02694 89.5,4.5C 94.2552,11.0035 98.2552,18.0035 101.5,25.5C 101.427,27.0269 102.094,28.0269 103.5,28.5C 123.559,62.273 143.392,96.273 163,130.5C 166.03,134.387 167.03,138.72 166,143.5C 165.005,144.066 164.172,144.733 163.5,145.5C 132.833,145.5 102.167,145.5 71.5,145.5C 69.8564,144.684 68.6897,143.35 68,141.5C 68.3551,117.164 69.1884,92.8302 70.5,68.5C 70.1667,64.8333 69.8333,61.1667 69.5,57.5C 58.1696,84.1812 47.3362,111.181 37,138.5C 36.0332,141.621 34.1999,143.954 31.5,145.5C 22.5,145.5 13.5,145.5 4.5,145.5C 1.76356,143.142 0.930231,140.142 2,136.5C 27.3333,92.5 52.6667,48.5 78,4.5C 80.3418,0.670024 83.5084,-0.329976 87.5,1.5 Z"/></g>
<g><path style="opacity:0.561" fill="#680d0b" d="M 87.5,1.5 C 88.9063,1.97306 89.573,2.97306 89.5,4.5C 88.0937,4.02694 87.427,3.02694 87.5,1.5 Z"/></g>
<g><path style="opacity:0.959" fill="#000000" d="M 186.5,24.5 C 195.94,24.0545 205.274,24.5545 214.5,26C 221.794,39.4208 228.961,52.9208 236,66.5C 243.549,53.2377 250.715,39.7377 257.5,26C 262.391,24.8859 267.391,24.3859 272.5,24.5C 276.833,24.6667 281.167,24.8333 285.5,25C 288.928,27.1452 289.428,29.9785 287,33.5C 275.081,53.0016 263.415,72.6683 252,92.5C 251.824,106.075 251.324,119.575 250.5,133C 240.816,133.832 231.149,133.665 221.5,132.5C 220.684,118.878 220.184,105.212 220,91.5C 208,71.5 196,51.5 184,31.5C 182.916,28.3411 183.75,26.0078 186.5,24.5 Z"/></g>
<g><path style="opacity:0.96" fill="#000000" d="M 321.5,24.5 C 328.508,24.3337 335.508,24.5004 342.5,25C 343.416,25.3742 344.25,25.8742 345,26.5C 359.561,60.8525 373.728,95.3525 387.5,130C 387.415,131.107 387.081,132.107 386.5,133C 377.5,133.667 368.5,133.667 359.5,133C 356.78,127.719 354.446,122.219 352.5,116.5C 338.85,115.501 325.183,115.167 311.5,115.5C 310.197,121.576 308.197,127.409 305.5,133C 296.5,133.667 287.5,133.667 278.5,133C 277.919,132.107 277.585,131.107 277.5,130C 291.226,94.388 305.893,59.2214 321.5,24.5 Z M 331.5,61.5 C 332.117,61.6107 332.617,61.944 333,62.5C 336.222,71.943 339.722,81.2763 343.5,90.5C 336.197,91.4973 328.863,91.8306 321.5,91.5C 324.636,81.4262 327.969,71.4262 331.5,61.5 Z"/></g>
<g><path style="opacity:0.949" fill="#000000" d="M 417.5,24.5 C 423.176,24.3339 428.843,24.5006 434.5,25C 435.416,25.3742 436.25,25.8742 437,26.5C 445.39,47.6142 454.057,68.6142 463,89.5C 471.471,68.4192 480.138,47.4192 489,26.5C 492.098,24.9527 495.431,24.2861 499,24.5C 501.889,24.547 504.722,24.8804 507.5,25.5C 509.687,30.9121 511.187,36.5788 512,42.5C 517.882,72.1308 523.215,101.797 528,131.5C 527.5,132 527,132.5 526.5,133C 518.5,133.667 510.5,133.667 502.5,133C 502,132.5 501.5,132 501,131.5C 498.957,114.442 496.624,97.4415 494,80.5C 486.667,97.8333 479.333,115.167 472,132.5C 466.584,133.639 461.084,133.806 455.5,133C 447.28,115.388 439.447,97.5549 432,79.5C 429.907,97.2449 427.407,114.912 424.5,132.5C 415.518,133.665 406.518,133.832 397.5,133C 396.57,131.806 395.903,130.473 395.5,129C 401.828,95.8683 407.994,62.7016 414,29.5C 414.257,27.0935 415.424,25.4268 417.5,24.5 Z"/></g>
<g><path style="opacity:0.949" fill="#000000" d="M 581.5,24.5 C 588.508,24.3337 595.508,24.5004 602.5,25C 603,25.5 603.5,26 604,26.5C 618.195,60.0857 632.195,93.7523 646,127.5C 646.651,129.235 646.485,130.902 645.5,132.5C 636.518,133.665 627.518,133.832 618.5,133C 615.29,127.54 612.957,121.707 611.5,115.5C 598.163,115.333 584.829,115.5 571.5,116C 569.167,121.667 566.833,127.333 564.5,133C 555.5,133.667 546.5,133.667 537.5,133C 536.707,131.915 536.04,130.748 535.5,129.5C 549.943,95.6147 564.109,61.6147 578,27.5C 579.145,26.3636 580.312,25.3636 581.5,24.5 Z M 590.5,61.5 C 594.967,71.0496 598.967,80.8829 602.5,91C 595.144,91.8313 587.811,91.6646 580.5,90.5C 584.239,80.9478 587.573,71.2812 590.5,61.5 Z"/></g>
<g><path style="opacity:0.951" fill="#000000" d="M 659.5,24.5 C 677.871,24.0979 696.204,24.5979 714.5,26C 729.215,29.3825 737.715,38.5491 740,53.5C 743.042,69.7195 738.209,82.8862 725.5,93C 720.162,95.7516 714.495,97.4183 708.5,98C 701.174,98.4997 693.841,98.6663 686.5,98.5C 686.667,109.838 686.5,121.172 686,132.5C 676.578,133.651 667.078,133.818 657.5,133C 656.874,132.25 656.374,131.416 656,130.5C 655.333,96.5 655.333,62.5 656,28.5C 656.69,26.6498 657.856,25.3164 659.5,24.5 Z M 686.5,47.5 C 693.447,46.878 700.114,47.878 706.5,50.5C 709.793,53.4255 711.126,57.0922 710.5,61.5C 710.714,69.1227 707.047,73.6227 699.5,75C 695.179,75.499 690.846,75.6657 686.5,75.5C 686.5,66.1667 686.5,56.8333 686.5,47.5 Z"/></g>
<g><path style="opacity:0.502" fill="#660a0b" d="M 101.5,25.5 C 102.906,25.9731 103.573,26.9731 103.5,28.5C 102.094,28.0269 101.427,27.0269 101.5,25.5 Z"/></g>
</svg>
